#!OML:ASF E:\emotionWalksFemale\Project 1\Capture day 1\Session 1\Female1.ASF
:FULLY-SPECIFIED
:DEGREES
423
root 9.16463 15.5016 -12.0765 -183.899 -10.6968 -177.923
lowerback 6.81121 1.43018 1.14906
upperback -4.93334 1.88226 -0.716813
thorax -8.98396 0.773445 -1.66964
lowerneck -6.45836 -6.30681 -7.60316
upperneck 4.93211 -8.00306 4.0317
head 3.28949 -3.99002 2.26086
rclavicle -8.54774e-015 1.19271e-015
rhumerus -56.8168 9.15341 -82.3252
rradius 36.6191
rwrist 22.8499
rhand -5.19069 -53.216
rfingers 7.12502
rthumb 20.6102 -82.1418
lclavicle -8.54774e-015 1.19271e-015
lhumerus -57.5298 8.79084 66.7854
lradius 31.163
lwrist -23.3729
lhand 1.06371 -32.9432
lfingers 7.12502
lthumb 26.6088 -4.79286
rfemur 6.72242 19.5855 32.214
rtibia 13.0369
rfoot -20.6224 -36.3578
rtoes 14.6106
lfemur -2.76653 -24.0261 -26.2237
ltibia 26.6768
lfoot -21.4223 21.163
ltoes -32.5155
424
root 9.16766 15.5008 -12.0784 -183.886 -10.6903 -177.884
lowerback 6.74825 1.4843 1.23789
upperback -4.87801 1.96593 -0.724647
thorax -8.88033 0.811402 -1.7365
lowerneck -6.64119 -6.31301 -7.63264
upperneck 5.17223 -8.00282 4.0632
head 3.41167 -3.98983 2.27012
rclavicle -2.48481e-014 -6.36111e-015
rhumerus -56.0847 8.5201 -82.0598
rradius 37.092
rwrist 22.0868
rhand -5.0975 -53.2141
rfingers 7.12502
rthumb 20.6997 -82.1302
lclavicle -2.48481e-014 -6.36111e-015
lhumerus -56.1609 9.10667 67.2986
lradius 31.4309
lwrist -22.7302
lhand 0.832125 -32.7698
lfingers 7.12502
lthumb 26.3872 -4.58598
rfemur 6.5809 19.7295 32.2953
rtibia 13.3073
rfoot -21.3604 -36.3627
rtoes 15.5208
lfemur -2.70341 -24.1548 -26.1906
ltibia 26.5585
lfoot -21.2743 21.3842
ltoes -32.9913
425
root 9.16917 15.4986 -12.085 -183.849 -10.7054 -177.972
lowerback 6.59656 1.53084 1.20934
upperback -4.87755 2.01719 -0.779215
thorax -8.78748 0.836774 -1.78018
lowerneck -6.43098 -6.22344 -7.60784
upperneck 5.18696 -7.90923 4.1425
head 3.37345 -3.94331 2.30415
rclavicle 8.24956e-015 -6.36111e-015
rhumerus -55.5587 7.99108 -81.9911
rradius 37.6515
rwrist 20.9261
rhand -5.1491 -53.4365
rfingers 7.12502
rthumb 20.6501 -82.358
lclavicle 8.24956e-015 -6.36111e-015
lhumerus -55.0209 9.37655 67.7445
lradius 31.8466
lwrist -22.1342
lhand 0.382344 -32.6897
lfingers 7.12502
lthumb 25.9565 -4.44203
rfemur 6.46676 19.7139 32.2089
rtibia 13.5527
rfoot -21.0762 -36.4733
rtoes 14.0973
lfemur -2.61255 -24.3886 -26.3368
ltibia 26.4497
lfoot -21.1292 21.6825
ltoes -33.3271
426
root 9.16907 15.497 -12.0871 -183.783 -10.7259 -178.177
lowerback 6.54847 1.57769 1.12264
upperback -4.9337 2.05764 -0.879175
thorax -8.81812 0.855455 -1.84238
lowerneck -6.14363 -6.13137 -7.65963
upperneck 5.19539 -7.81744 4.30071
head 3.32728 -3.89789 2.38061
rclavicle -4.96962e-016 -2.38542e-015
rhumerus -55.1762 7.53322 -82.0054
rradius 38.1078
rwrist 20.1549
rhand -5.50378 -53.4174
rfingers 7.12502
rthumb 20.3093 -82.3755
lclavicle -4.96962e-016 -2.38542e-015
lhumerus -53.8474 9.44912 68.2612
lradius 32.1895
lwrist -21.343
lhand -0.046323 -32.6959
lfingers 7.12502
lthumb 25.546 -4.3888
rfemur 6.34989 19.5743 31.9525
rtibia 13.7162
rfoot -20.0379 -36.6625
rtoes 11.1466
lfemur -2.56257 -24.5774 -26.6053
ltibia 26.3717
lfoot -21.1124 21.8773
ltoes -33.1865
427
root 9.17271 15.4994 -12.078 -183.69 -10.7514 -178.203
lowerback 6.65532 1.59811 1.17254
upperback -5.03549 2.08357 -0.916975
thorax -8.98818 0.858252 -1.92005
lowerneck -6.07179 -6.11469 -7.61618
upperneck 5.39912 -7.80703 4.23595
head 3.37738 -3.89737 2.35179
rclavicle -1.08338e-014 -5.96354e-015
rhumerus -54.8031 7.09763 -82.0232
rradius 38.6224
rwrist 19.8679
rhand -5.72812 -53.3618
rfingers 7.12502
rthumb 20.0937 -82.3427
lclavicle -1.08338e-014 -5.96354e-015
lhumerus -52.5028 9.67216 68.7539
lradius 32.4281
lwrist -20.5342
lhand -0.12769 -32.4903
lfingers 7.12502
lthumb 25.4681 -4.17206
rfemur 6.12533 19.5867 31.8926
rtibia 13.8244
rfoot -19.4918 -36.8577
rtoes 9.64678
lfemur -2.7043 -24.5827 -26.5493
ltibia 26.328
lfoot -21.2053 21.7842
ltoes -32.6722
428
root 9.17707 15.502 -12.0706 -183.598 -10.7991 -178.17
lowerback 6.66013 1.57776 1.18685
upperback -5.10407 2.05584 -0.895094
thorax -9.06736 0.841362 -1.90259
lowerneck -6.12042 -6.13663 -7.51055
upperneck 5.70139 -7.83516 4.01483
head 3.47509 -3.91944 2.25224
rclavicle -8.64713e-015 -6.36111e-015
rhumerus -54.4498 6.87126 -82.1749
rradius 39.4406
rwrist 19.0223
rhand -6.0489 -53.5529
rfingers 7.12502
rthumb 19.7853 -82.5659
lclavicle -8.64713e-015 -6.36111e-015
lhumerus -51.2421 9.70708 69.5224
lradius 32.9294
lwrist -19.2609
lhand -0.219787 -32.1785
lfingers 7.12502
lthumb 25.3798 -3.84771
rfemur 5.98247 19.6528 31.9111
rtibia 13.8112
rfoot -19.6145 -36.9193
rtoes 9.99563
lfemur -2.88607 -24.5534 -26.412
ltibia 26.3365
lfoot -21.3013 21.6254
ltoes -32.1988
